<svg width="12" height="15" viewBox="0 0 12 15" fill="none" xmlns="http://www.w3.org/2000/svg">
<path d="M0.166687 12.9167C0.166687 13.6068 0.726583 14.1667 1.41669 14.1667H10.5834C11.2735 14.1667 11.8334 13.6068 11.8334 12.9167V5.83337H0.166687V12.9167ZM1.83335 7.91671C1.83335 7.68754 2.02085 7.50004 2.25002 7.50004H9.75002C9.97919 7.50004 10.1667 7.68754 10.1667 7.91671V9.58337C10.1667 9.81254 9.97919 10 9.75002 10H2.25002C2.02085 10 1.83335 9.81254 1.83335 9.58337V7.91671ZM10.5834 2.50004H9.33335V1.25004C9.33335 1.02087 9.14585 0.833374 8.91669 0.833374H8.08335C7.85419 0.833374 7.66669 1.02087 7.66669 1.25004V2.50004H4.33335V1.25004C4.33335 1.02087 4.14585 0.833374 3.91669 0.833374H3.08335C2.85419 0.833374 2.66669 1.02087 2.66669 1.25004V2.50004H1.41669C0.726583 2.50004 0.166687 3.05994 0.166687 3.75004V5.00004H11.8334V3.75004C11.8334 3.05994 11.2735 2.50004 10.5834 2.50004Z" fill="#0C41FF"/>
</svg>
